<?xml version="1.0" encoding="UTF-8"?>
<svg xmlns="http://www.w3.org/2000/svg" xmlns:xlink="http://www.w3.org/1999/xlink" width="147px" height="100px" viewBox="0 0 146 100" version="1.1">
<g id="surface1">
<path style=" stroke:none;fill-rule:nonzero;fill:rgb(0%,0%,0%);fill-opacity:1;" d="M 68.824219 12.714844 C 67.65625 13.171875 67.296875 14.683594 68.109375 15.59375 C 68.515625 16.050781 68.824219 16.074219 75.242188 16.074219 C 82.398438 16.074219 83.066406 16.171875 83.210938 17.226562 C 83.257812 17.539062 83.113281 18.042969 82.925781 18.378906 L 82.542969 18.953125 L 71.304688 18.953125 C 64.4375 18.953125 59.925781 19.050781 59.640625 19.195312 C 58.710938 19.699219 58.566406 21.664062 59.449219 22.242188 C 59.617188 22.335938 66.535156 22.480469 74.789062 22.554688 L 89.84375 22.671875 L 88.839844 29.390625 C 88.292969 33.085938 87.765625 36.5625 87.671875 37.117188 L 87.527344 38.148438 L 60.261719 38.148438 C 34.136719 38.148438 32.96875 38.171875 32.613281 38.578125 C 32.085938 39.15625 32.109375 40.140625 32.636719 40.617188 C 33.015625 40.980469 33.898438 41.027344 40.222656 41.027344 C 48.117188 41.027344 48.429688 41.074219 48.429688 42.464844 C 48.429688 43.90625 48.523438 43.90625 36.09375 43.90625 C 23.953125 43.90625 24.355469 43.859375 23.953125 45.152344 C 23.832031 45.539062 23.929688 45.800781 24.332031 46.113281 C 24.835938 46.519531 25.71875 46.546875 38.980469 46.546875 L 53.078125 46.546875 L 53.078125 48.296875 C 53.078125 49.808594 53.175781 50.191406 53.722656 51.03125 C 55.488281 53.71875 59.546875 53.671875 62.191406 50.9375 C 63.503906 49.566406 64.03125 48.175781 63.886719 46.328125 C 63.769531 44.457031 63.027344 43.378906 61.359375 42.539062 C 60.308594 42.011719 59.878906 41.9375 58.734375 42.058594 C 57.898438 42.128906 57.566406 42.105469 57.851562 41.988281 C 58.542969 41.699219 60.929688 41.699219 61.714844 42.011719 C 63.101562 42.539062 64.625 44.601562 64.648438 45.992188 L 64.648438 46.546875 L 100.886719 46.546875 L 100.746094 47.746094 C 100.480469 49.976562 101.816406 52.085938 103.917969 52.78125 C 105.15625 53.214844 107.160156 52.949219 108.425781 52.207031 C 112.242188 49.953125 112.960938 45.058594 109.785156 42.851562 C 108.925781 42.25 108.546875 42.128906 107.28125 42.105469 C 106.46875 42.105469 105.539062 42.179688 105.207031 42.273438 C 104.753906 42.417969 104.777344 42.371094 105.324219 42.105469 C 106.398438 41.578125 108.855469 41.652344 109.976562 42.226562 C 111.097656 42.800781 112.078125 44.167969 112.265625 45.394531 L 112.433594 46.304688 L 116.441406 46.304688 C 120.308594 46.304688 120.449219 46.28125 120.808594 45.777344 C 121.023438 45.488281 121.191406 44.960938 121.191406 44.601562 C 121.191406 44.265625 121.402344 43.691406 121.667969 43.378906 C 121.90625 43.042969 122.046875 42.707031 121.976562 42.609375 C 121.90625 42.539062 121.238281 42.464844 120.523438 42.464844 C 119.449219 42.464844 119.257812 42.394531 119.375 42.082031 C 119.449219 41.867188 119.519531 41.652344 119.519531 41.601562 C 119.519531 41.554688 119.925781 41.507812 120.449219 41.507812 C 120.949219 41.507812 121.476562 41.363281 121.59375 41.195312 C 121.832031 40.90625 122.859375 34.238281 122.859375 33.109375 C 122.859375 32.726562 121.214844 29.824219 118.613281 25.671875 L 114.367188 18.832031 L 109 18.761719 L 103.609375 18.714844 L 103.796875 17.5625 C 104.15625 15.402344 104.0625 14.277344 103.488281 13.746094 C 102.867188 13.171875 101.867188 12.621094 101.722656 12.765625 C 101.675781 12.835938 100.792969 18.472656 99.765625 25.335938 L 97.90625 37.789062 L 96.902344 37.859375 C 96.355469 37.90625 95.902344 37.835938 95.902344 37.738281 C 95.902344 37.621094 96.714844 32.148438 97.691406 25.550781 C 98.667969 18.953125 99.503906 13.339844 99.550781 13.074219 C 99.601562 12.523438 98.597656 12.234375 98.40625 12.765625 C 98.289062 13.101562 95.1875 33.515625 95.1875 33.996094 C 95.1875 34.164062 95.019531 34.308594 94.828125 34.308594 C 94.636719 34.308594 94.46875 34.140625 94.46875 33.949219 C 94.46875 33.757812 95.113281 29.292969 95.902344 23.992188 C 96.929688 17.011719 97.261719 14.25 97.09375 13.820312 C 96.59375 12.476562 96.59375 12.476562 82.375 12.5 C 75.195312 12.5 69.085938 12.597656 68.824219 12.714844 Z M 114.082031 21.640625 C 114.4375 21.929688 118.183594 27.832031 118.921875 29.269531 C 119.1875 29.75 119.1875 29.992188 118.972656 30.207031 C 118.542969 30.636719 102.484375 30.589844 102.128906 30.132812 C 101.746094 29.679688 102.890625 22.433594 103.441406 21.808594 C 103.820312 21.402344 104.25 21.351562 108.785156 21.351562 C 112.363281 21.351562 113.816406 21.425781 114.082031 21.640625 Z M 107.234375 31.910156 C 107.566406 32.460938 106.828125 32.871094 105.421875 32.871094 C 104.011719 32.871094 103.632812 32.652344 103.871094 32.03125 C 104.011719 31.597656 106.996094 31.527344 107.234375 31.910156 Z M 60.238281 45.707031 C 60.929688 46.378906 61.023438 47.410156 60.476562 48.464844 C 59.972656 49.449219 59.210938 49.902344 58.113281 49.902344 C 56.824219 49.902344 56.0625 49.183594 56.0625 47.9375 C 56.0625 46.738281 56.371094 46.160156 57.328125 45.585938 C 58.398438 44.914062 59.519531 44.960938 60.238281 45.707031 Z M 107.902344 45.585938 C 109.09375 46.546875 108.902344 48.25 107.449219 49.398438 C 106.015625 50.550781 103.773438 49.664062 103.773438 47.960938 C 103.773438 45.800781 106.304688 44.335938 107.902344 45.585938 Z M 107.902344 45.585938 "/>
<path style=" stroke:none;fill-rule:nonzero;fill:rgb(0%,0%,0%);fill-opacity:1;" d="M 57.875 46.929688 C 57.089844 47.722656 57.730469 48.726562 58.757812 48.320312 C 59.28125 48.128906 59.496094 47.3125 59.164062 46.90625 C 58.78125 46.449219 58.328125 46.449219 57.875 46.929688 Z M 57.875 46.929688 "/>
<path style=" stroke:none;fill-rule:nonzero;fill:rgb(0%,0%,0%);fill-opacity:1;" d="M 105.585938 47.074219 C 104.945312 48.007812 106.015625 48.992188 106.828125 48.175781 C 107.234375 47.769531 107.1875 46.855469 106.734375 46.6875 C 106.136719 46.449219 105.96875 46.519531 105.585938 47.074219 Z M 105.585938 47.074219 "/>
<path style=" stroke:none;fill-rule:nonzero;fill:rgb(0%,0%,0%);fill-opacity:1;" d="M 31.394531 13.242188 C 30.917969 13.941406 30.917969 14.851562 31.394531 15.546875 L 31.753906 16.074219 L 47.472656 16.074219 C 61.429688 16.074219 63.21875 16.027344 63.554688 15.691406 C 64.148438 15.113281 64.292969 14.15625 63.910156 13.460938 L 63.554688 12.835938 L 47.664062 12.765625 L 31.753906 12.714844 Z M 31.394531 13.242188 "/>
<path style=" stroke:none;fill-rule:nonzero;fill:rgb(0%,0%,0%);fill-opacity:1;" d="M 20.660156 19.410156 C 20.421875 19.671875 20.230469 20.273438 20.230469 20.753906 C 20.230469 21.234375 20.421875 21.832031 20.660156 22.097656 C 21.042969 22.527344 21.46875 22.554688 29.941406 22.554688 C 39.960938 22.554688 39.601562 22.625 39.601562 20.707031 C 39.601562 18.90625 39.863281 18.953125 29.890625 18.953125 C 21.46875 18.953125 21.042969 18.976562 20.660156 19.410156 Z M 20.660156 19.410156 "/>
<path style=" stroke:none;fill-rule:nonzero;fill:rgb(0%,0%,0%);fill-opacity:1;" d="M 43.464844 19.363281 C 43.179688 19.601562 42.871094 20.128906 42.796875 20.5625 C 42.679688 21.183594 42.773438 21.449219 43.25 21.929688 L 43.871094 22.554688 L 48.5 22.554688 C 52.578125 22.554688 53.199219 22.503906 53.652344 22.121094 C 54.390625 21.519531 54.535156 20.394531 53.960938 19.671875 C 53.484375 19.074219 53.460938 19.074219 48.738281 19 C 44.445312 18.929688 43.941406 18.976562 43.464844 19.363281 Z M 43.464844 19.363281 "/>
<path style=" stroke:none;fill-rule:nonzero;fill:rgb(0%,0%,0%);fill-opacity:1;" d="M 2.980469 60.269531 C 2.910156 60.4375 2.886719 66.410156 2.910156 73.535156 L 2.980469 86.492188 L 7.992188 86.5625 C 13.574219 86.660156 15.101562 86.445312 16.269531 85.460938 C 17.867188 84.117188 17.890625 83.949219 17.890625 73.34375 C 17.890625 65.28125 17.84375 63.675781 17.535156 62.933594 C 17.058594 61.78125 16.554688 61.253906 15.386719 60.605469 C 14.503906 60.148438 14.027344 60.101562 8.753906 60.027344 C 4.222656 59.957031 3.078125 60.003906 2.980469 60.269531 Z M 12.546875 65.355469 C 12.976562 65.691406 13 66.050781 13 73.296875 C 13 82.222656 13.238281 81.574219 10.089844 81.574219 L 8.109375 81.574219 L 8.109375 65.019531 L 10.089844 65.019531 C 11.425781 65.019531 12.238281 65.140625 12.546875 65.355469 Z M 12.546875 65.355469 "/>
<path style=" stroke:none;fill-rule:nonzero;fill:rgb(0%,0%,0%);fill-opacity:1;" d="M 22.113281 60.148438 C 22.019531 60.222656 21.949219 66.21875 21.949219 73.464844 L 21.949219 86.613281 L 29.320312 86.613281 C 35.808594 86.613281 36.714844 86.5625 36.835938 86.226562 C 37.023438 85.75 37.023438 82.4375 36.835938 81.957031 C 36.714844 81.621094 36.046875 81.574219 31.824219 81.574219 L 26.957031 81.574219 L 26.957031 76.054688 L 30.394531 76.054688 C 32.277344 76.054688 33.996094 75.984375 34.210938 75.910156 C 34.519531 75.792969 34.589844 75.335938 34.589844 73.390625 L 34.589844 71.015625 L 26.957031 71.015625 L 26.957031 65.019531 L 31.824219 65.019531 C 36.046875 65.019531 36.714844 64.972656 36.835938 64.636719 C 37.097656 63.941406 37 60.582031 36.691406 60.269531 C 36.476562 60.054688 34.519531 59.980469 29.34375 59.980469 C 25.453125 59.980469 22.1875 60.054688 22.113281 60.148438 Z M 22.113281 60.148438 "/>
<path style=" stroke:none;fill-rule:nonzero;fill:rgb(0%,0%,0%);fill-opacity:1;" d="M 40.816406 60.4375 C 40.53125 60.941406 40.4375 85.078125 40.699219 86.085938 L 40.84375 86.613281 L 47.332031 86.5625 L 53.796875 86.492188 L 53.796875 81.695312 L 49.8125 81.621094 L 45.804688 81.574219 L 45.757812 70.824219 L 45.683594 60.101562 L 43.371094 60.027344 C 41.269531 59.980469 41.03125 60.003906 40.816406 60.4375 Z M 40.816406 60.4375 "/>
<path style=" stroke:none;fill-rule:nonzero;fill:rgb(0%,0%,0%);fill-opacity:1;" d="M 57.851562 60.269531 C 57.78125 60.4375 57.757812 66.410156 57.78125 73.535156 L 57.851562 86.492188 L 62.621094 86.492188 L 62.621094 60.101562 L 60.285156 60.027344 C 58.566406 59.980469 57.921875 60.054688 57.851562 60.269531 Z M 57.851562 60.269531 "/>
<path style=" stroke:none;fill-rule:nonzero;fill:rgb(0%,0%,0%);fill-opacity:1;" d="M 65.960938 60.222656 C 65.796875 60.507812 71.757812 85.867188 72.117188 86.324219 C 72.425781 86.730469 76.675781 86.730469 77.007812 86.300781 C 77.390625 85.867188 83.328125 60.773438 83.164062 60.339844 C 83.066406 60.054688 82.589844 59.980469 80.871094 59.980469 C 78.867188 59.980469 78.703125 60.027344 78.488281 60.507812 C 78.367188 60.820312 77.460938 64.777344 76.460938 69.335938 C 75.457031 73.871094 74.621094 77.640625 74.574219 77.664062 C 74.550781 77.6875 73.691406 73.871094 72.664062 69.144531 C 71.640625 64.445312 70.6875 60.4375 70.566406 60.269531 C 70.257812 59.910156 66.175781 59.859375 65.960938 60.222656 Z M 65.960938 60.222656 "/>
<path style=" stroke:none;fill-rule:nonzero;fill:rgb(0%,0%,0%);fill-opacity:1;" d="M 86.480469 60.269531 C 86.40625 60.4375 86.382812 66.410156 86.40625 73.535156 L 86.480469 86.492188 L 101.269531 86.492188 L 101.269531 81.695312 L 96.332031 81.621094 L 91.371094 81.574219 L 91.371094 76.054688 L 95.042969 76.054688 C 97.882812 76.054688 98.765625 75.984375 98.980469 75.71875 C 99.171875 75.503906 99.242188 74.617188 99.195312 73.25 L 99.121094 71.136719 L 95.304688 71.015625 L 91.488281 70.898438 L 91.417969 67.96875 L 91.34375 65.019531 L 96.308594 64.972656 L 101.269531 64.898438 L 101.269531 60.101562 L 93.921875 60.027344 C 88.171875 59.980469 86.550781 60.027344 86.480469 60.269531 Z M 86.480469 60.269531 "/>
<path style=" stroke:none;fill-rule:nonzero;fill:rgb(0%,0%,0%);fill-opacity:1;" d="M 105.324219 60.507812 C 105.253906 60.820312 105.230469 66.769531 105.253906 73.777344 L 105.324219 86.492188 L 107.566406 86.5625 C 109.214844 86.613281 109.882812 86.539062 110.023438 86.324219 C 110.121094 86.15625 110.214844 84.308594 110.214844 82.222656 L 110.214844 78.453125 L 111.765625 78.453125 C 112.984375 78.453125 113.339844 78.550781 113.507812 78.863281 C 113.628906 79.101562 114.082031 80.804688 114.535156 82.652344 C 114.964844 84.5 115.417969 86.15625 115.535156 86.300781 C 115.796875 86.660156 119.902344 86.730469 120.09375 86.394531 C 120.1875 86.277344 119.78125 84.285156 119.257812 82.003906 L 118.253906 77.832031 L 118.898438 77.183594 C 120.140625 75.9375 120.234375 75.335938 120.234375 69.335938 C 120.234375 62.523438 120.042969 61.851562 117.730469 60.605469 C 116.847656 60.148438 116.371094 60.101562 111.121094 60.027344 L 105.46875 59.933594 Z M 114.4375 65.042969 C 114.796875 65.164062 115.179688 65.425781 115.273438 65.570312 C 115.367188 65.738281 115.464844 67.417969 115.464844 69.3125 C 115.464844 73.726562 115.511719 73.65625 112.433594 73.65625 L 110.214844 73.65625 L 110.214844 64.777344 L 111.980469 64.777344 C 112.960938 64.777344 114.054688 64.898438 114.4375 65.042969 Z M 114.4375 65.042969 "/>
<path style=" stroke:none;fill-rule:nonzero;fill:rgb(0%,0%,0%);fill-opacity:1;" d="M 122.714844 60.316406 C 122.644531 60.507812 124.148438 64.25 126.054688 68.617188 L 129.539062 76.558594 L 129.539062 81.285156 C 129.539062 84.667969 129.609375 86.109375 129.824219 86.324219 C 130.207031 86.707031 134.121094 86.707031 134.5 86.324219 C 134.714844 86.109375 134.789062 84.644531 134.789062 81.214844 L 134.789062 76.414062 L 138.246094 68.523438 C 140.15625 64.179688 141.65625 60.460938 141.609375 60.292969 C 141.515625 60.078125 140.894531 59.980469 139.273438 59.980469 C 138.054688 59.980469 136.933594 60.078125 136.769531 60.171875 C 136.625 60.269531 135.574219 62.5 134.429688 65.113281 C 133.308594 67.753906 132.332031 70.007812 132.234375 70.128906 C 132.164062 70.25 131.160156 68.164062 130.015625 65.523438 C 128.871094 62.859375 127.796875 60.53125 127.628906 60.339844 C 127.203125 59.835938 122.90625 59.8125 122.714844 60.316406 Z M 122.714844 60.316406 "/>
</g>
</svg>
